<?xml version="1.0" encoding="UTF-8"?>
<svg id="_图层_2" data-name="图层 2" xmlns="http://www.w3.org/2000/svg" viewBox="0 0 139.65 139.65">
  <g id="_图层_1-2" data-name="图层 1">
    <rect width="139.65" height="139.65" rx="15.52" ry="15.52" style="fill: #2b5f75;"/>
    <path d="M19.31,117.92h7.24c-.49-2.92-1.06-5.75-1.72-8.49h5.21c.59,2.71,1.16,5.54,1.72,8.49h17.97c.94-2.92,1.68-5.78,2.24-8.6h5.37c-.66,3.09-1.41,5.96-2.24,8.6h7.87v4.9H19.31v-4.9Zm.05-38.81H62.97v4.74H19.37v-4.74Zm32.19,8.33c6.36,.17,9.53,3.51,9.53,10,0,6.04-2.74,9.29-8.23,9.74H22.8v-19.74h28.76Zm-23.49,15.05l23.86,.05c2.6-.03,3.91-1.79,3.91-5.26s-1.44-5.26-4.32-5.26H28.07v10.47Z" style="fill: #ffba84;"/>
    <g>
      <polygon points="44.43 32.37 38.49 32.37 38.49 27.73 33.7 27.73 33.7 32.37 28.12 32.37 28.12 37.16 33.7 37.16 33.7 65.66 38.49 65.66 38.49 37.16 44.43 37.16 44.43 32.37" style="fill: #ffba84;"/>
      <path d="M27.34,63.1h3.49c.69-7.81,1.13-15.97,1.3-24.48h-3.23c-.17,8.4-.7,16.57-1.56,24.48Z" style="fill: #ffba84;"/>
      <path d="M21.92,34.31c-.26,10.79-.98,21.13-2.03,31l5-.05c1-9.48,1.7-19.46,1.98-29.9,.09-3.25,.13-6.46,.14-9.62-.71,.03-1.58,.13-2.55,.36-.97,.24-1.79,.55-2.44,.85-.01,2.43-.05,4.88-.11,7.36Z" style="fill: #ffba84;"/>
      <path d="M62.82,59.68c-.52-.14-.78-.78-.78-1.93v-18.81l-3.39-.05v18.91c.17,3.79,1.27,5.68,3.28,5.68,.69,0,1.62-.07,2.76-.21v-3.8c-.56,.07-1.18,.14-1.88,.21Z" style="fill: #ffba84;"/>
      <polygon points="63.02 32.54 57.03 32.54 57.03 28.01 52.19 28.01 52.19 32.54 46.04 32.54 46.04 37.33 52.19 37.33 52.19 65.98 57.03 65.98 57.03 37.33 63.02 37.33 63.02 32.54" style="fill: #ffba84;"/>
      <path d="M45.5,58.36h0c-1.04,.05-1.92-.78-1.92-1.83l-.09-17.71-3.39-.05v17.71c0,.26,.06,3.73,2.76,5.37,1.12,.68,2.24,.77,2.89,.77h0c2.31-.02,4.19-1.85,4.29-4.15,.11-2.5,.21-5.03,.29-7.59,.12-3.99,.2-8.05,.23-12.2h-3.23c0,3.42,0,6.86-.03,10.32-.02,2.53-.04,5.05-.07,7.56-.01,.97-.78,1.77-1.75,1.81Z" style="fill: #ffba84;"/>
      <polygon points="49.54 16.88 49.54 12.03 45.34 9.61 41.14 12.03 41.14 16.88 45.34 19.3 49.54 16.88" style="fill: #d75455;"/>
      <path d="M16.52,22.47c6.14-2.77,11.14-3.38,14.41-3.47,9.36-.27,14.14,3.43,25.18,3.21,4.33-.09,7.82-.74,9.9-1.22,.69,1.56,1.39,3.13,2.08,4.69-2.9,.58-7.28,1.21-12.59,1-11.18-.43-16-4.17-25.35-3.17-2.94,.31-7,1.16-11.72,3.56-.64-1.53-1.27-3.07-1.91-4.6Z" style="fill: #ffba84;"/>
    </g>
    <g>
      <path d="M79.61,84.3c0,2.6-.02,5.23-.05,7.87-.14,10.54-.53,20.81-1.15,30.79l-5.42,.05c.73-10.34,1.19-20.98,1.35-31.88,.03-1.85,.04-3.7,.05-5.53,.65-.35,1.57-.76,2.71-1.02,.97-.22,1.83-.28,2.5-.27Zm8.49,1.3h4.64c-.87,2.05-1.96,3.84-3.28,5.37v9.69h-4.27v-5.83c-1.22,.8-2.52,1.49-3.91,2.08v-4.64c3.02-1.6,5.3-3.82,6.82-6.67Zm13.6,21.51c.21,.42,.5,.73,.89,.94,1.18,.73,3.3,1.09,6.35,1.09v3.7c-3.96,0-6.75-.45-8.39-1.35v1.2c.35,.94,3.11,1.81,8.28,2.6v3.91c-3.99-.73-7.07-1.82-9.22-3.28-.52,.8-1.3,1.42-2.34,1.88-2.54,1.32-5.23,2.22-8.07,2.71l-.05-4.48c1.94-.24,3.59-.61,4.95-1.09,1.42-.49,2.14-1.13,2.14-1.93l.05-1.46c-1.74,.97-4.27,1.46-7.61,1.46v-3.65c3.58,0,5.78-.75,6.62-2.24h-8.75v16.31h-4.69v-20.47h14.53c.03-.49,.05-1.01,.05-1.56h4.53c0,.56-.02,1.08-.05,1.56h9.58c2.67,.45,4.34,1.88,5,4.27,.45,1.11,.71,3.25,.78,6.41,0,1.95-.09,3.49-.26,4.64-.66,3.33-2.48,5.1-5.47,5.31-2.67,0-4.72-.14-6.15-.42v-3.8c1.46,.14,3.02,.24,4.69,.31,1.25-.07,2.01-.66,2.29-1.77,.17-1.15,.26-2.5,.26-4.06,0-1.94-.14-3.46-.42-4.53-.1-1.46-.89-2.19-2.34-2.19h-7.19Zm-8.49-19.07h13.28c-.04-1.15-.09-1.94-.16-2.4h4.48c.1,.49,.17,1.29,.21,2.4h5.11v4.06h-5.05c-.07,2.15-.19,3.68-.36,4.58-.42,2.57-1.67,3.94-3.75,4.12-2.19-.07-3.89-.35-5.1-.83v-3.7c1.25,.42,2.34,.62,3.28,.62,.59-.07,1.01-.61,1.25-1.61,.07-.49,.12-1.54,.16-3.18h-13.34v-4.06Zm1.41,5.63h4.01c.49,2.01,.96,4.17,1.41,6.46h-4.06c-.38-2.22-.83-4.38-1.35-6.46Zm5.78,17.76c-.17-.07-.31-.14-.42-.21-.59-.38-1.09-.89-1.51-1.51-.28,.31-.57,.61-.89,.89-.31,.31-.7,.59-1.15,.83h3.96Z" style="fill: #ffba84;"/>
      <polygon points="102.84 75.1 102.84 70.25 98.64 67.83 94.44 70.25 94.44 75.1 98.64 77.52 102.84 75.1" style="fill: #d75455;"/>
      <path d="M69.83,80.69c6.14-2.77,11.14-3.38,14.41-3.47,9.36-.27,14.14,3.43,25.18,3.21,4.33-.09,7.82-.74,9.9-1.22,.69,1.56,1.39,3.13,2.08,4.69-2.9,.58-7.28,1.21-12.59,1-11.18-.43-16-4.17-25.35-3.17-2.94,.31-7,1.16-11.72,3.56-.64-1.53-1.27-3.07-1.91-4.6Z" style="fill: #ffba84;"/>
    </g>
    <g>
      <path d="M73.39,49.64h16.2c.9-.69,1.79-1.37,2.66-2.03h7.14c-.97,.73-1.88,1.41-2.71,2.03h21.36v4.64h-9.74c-.66,2.08-1.79,3.89-3.39,5.42,5.17,1.01,9.38,1.91,12.61,2.71v5.42c-6.32-1.84-12.31-3.4-17.97-4.69-4.34,1.88-10.07,2.95-17.19,3.23-3.02,0-5.59-.04-7.71-.1v-4.74c1.67,.07,3.78,.1,6.36,.1,3.23-.1,6.06-.35,8.49-.73-4.76-1.18-7.14-2.4-7.14-3.65,0-.66,.64-1.65,1.93-2.97h-10.89v-4.64Zm7.35-12.5h4.84c-2.64,5.63-6.39,9.06-11.25,10.31v-4.53c3.02-1.15,5.16-3.07,6.41-5.78Zm-6.3-8.86c4.03,.9,7.69,2.08,10.99,3.54v4.38c-3.65-1.63-7.31-2.86-10.99-3.7v-4.22Zm.21-6.51c3.92,.76,7.52,1.7,10.78,2.81v4.95c-3.61-1.53-7.21-2.69-10.78-3.49v-4.27Zm30.11,10.63h7.35c2.08,.45,3.13,1.46,3.13,3.02,0,1.42-.59,2.76-1.77,4.01-.73,1.01-1.58,1.84-2.55,2.5,1.91,.21,4.01,.31,6.3,.31l.05,4.43c-4.86-.28-8.98-.85-12.35-1.72-3.3,1.04-7.62,1.58-12.97,1.61l-.05-3.91c2.4,0,4.51-.1,6.36-.31-2.22-1.32-3.8-2.88-4.74-4.69h5.16c1.42,1.35,3.4,2.41,5.94,3.18,3.4-1.46,5.1-2.78,5.1-3.96,0-.31-.19-.47-.57-.47h-17.76c-.1,3.75-.52,7.31-1.25,10.68l-4.58,.1c.94-3.75,1.42-8.56,1.46-14.43,.03-2.95,.05-6.18,.05-9.69h12.66v-2.81h5.05v2.81h7.45c2.85,.24,4.44,1.74,4.79,4.48,0,1.35-.17,2.67-.52,3.96h-4.32c.14-.9,.26-1.82,.36-2.76,0-.8-.36-1.27-1.09-1.41h-6.67v5.05Zm-6.62,26.05c2.33-1.11,3.94-2.5,4.84-4.17h-12.19c-1.42,1.15-2.14,1.79-2.14,1.93,0,.28,3.16,1.02,9.48,2.24Zm-6.46-31.1c0,1.74-.05,3.42-.16,5.05h8.18v-5.05h-8.02Z" style="fill: #ffba84;"/>
      <path d="M70.95,51.94c6.14-2.77,11.14-3.38,14.41-3.47,9.36-.27,14.14,3.43,25.18,3.21,4.33-.09,7.82-.74,9.9-1.22,.69,1.56,1.39,3.13,2.08,4.69-2.9,.58-7.28,1.21-12.59,1-11.18-.43-16-4.17-25.35-3.17-2.94,.31-7,1.16-11.72,3.56-.64-1.53-1.27-3.07-1.91-4.6Z" style="fill: #ffba84;"/>
    </g>
  </g>
</svg>